HIERARCHY
ROOT Hips
{
  OFFSET -12.2235 100.25 85.0444
  CHANNELS 6 Xposition Yposition Zposition Zrotation Xrotation Yrotation
  JOINT RightUpLeg
  {
    OFFSET -8.9458 -8.66707 0.101652
    CHANNELS 3 Zrotation Xrotation Yrotation
    JOINT RightLeg
    {
      OFFSET 0 -44.4227 1.3727
      CHANNELS 3 Zrotation Xrotation Yrotation
      JOINT RightFoot
      {
        OFFSET 0.253549 -42.0924 -1.46059
        CHANNELS 3 Zrotation Xrotation Yrotation
        JOINT RightToes
        {
          OFFSET 0.04 -4.41509 8.4991
          CHANNELS 3 Zrotation Xrotation Yrotation
          End Site
          {
            OFFSET -0.08 -0.137448 9.77979
          }
        }
      }
    }
  }
  JOINT Spine
  {
    OFFSET 0 11.8905 0
    CHANNELS 3 Zrotation Xrotation Yrotation
    JOINT Spine1
    {
      OFFSET 0 25.6574 0.127663
      CHANNELS 3 Zrotation Xrotation Yrotation
      JOINT HEad
      {
        OFFSET 0 8.73416 0.011341
        CHANNELS 3 Zrotation Xrotation Yrotation
        End Site
        {
          OFFSET -0.29 12.7742 2.51395
        }
      }
      JOINT LeftShoulder1
      {
        OFFSET 8.99 -0.362252 -0.22
        CHANNELS 3 Zrotation Xrotation Yrotation
        JOINT LeftArm
        {
          OFFSET 10.2827 -0.00338 0.322123
          CHANNELS 3 Zrotation Xrotation Yrotation
          JOINT LeftForeArm
          {
            OFFSET 32.7669 0.099144 -1.42434
            CHANNELS 3 Zrotation Xrotation Yrotation
            JOINT LeftHand
            {
              OFFSET 27.5643 0.085362 1.02216
              CHANNELS 3 Zrotation Xrotation Yrotation
              End Site
              {
                OFFSET 16.7443 -0.6 1.50291
              }
            }
          }
        }
      }
      JOINT RightShoulder
      {
        OFFSET -8.99 -0.362252 -0.22
        CHANNELS 3 Zrotation Xrotation Yrotation
        JOINT RightArm
        {
          OFFSET -10.2827 -0.00338 0.322123
          CHANNELS 3 Zrotation Xrotation Yrotation
          JOINT RightForeArm
          {
            OFFSET -32.8971 0.099144 -1.42434
            CHANNELS 3 Zrotation Xrotation Yrotation
            JOINT RightHand
            {
              OFFSET -27.4921 0.085362 1.02216
              CHANNELS 3 Zrotation Xrotation Yrotation
              End Site
              {
                OFFSET -16.6312 -0.6 1.50291
              }
            }
          }
        }
      }
    }
  }
  JOINT LeftUpLeg
  {
    OFFSET 8.9458 -8.66707 0.101652
    CHANNELS 3 Zrotation Xrotation Yrotation
    JOINT LeftLeg
    {
      OFFSET 0 -44.4227 1.3727
      CHANNELS 3 Zrotation Xrotation Yrotation
      JOINT LeftFoot
      {
        OFFSET -0.253549 -42.0924 -1.46059
        CHANNELS 3 Zrotation Xrotation Yrotation
        JOINT LeftToes
        {
          OFFSET -0.04 -4.41509 8.4991
          CHANNELS 3 Zrotation Xrotation Yrotation
          End Site
          {
            OFFSET 0.08 -0.047448 9.77979
          }
        }
      }
    }
  }
}
MOTION
Frames:	10
Frame Time:	0.0166667
18.9134 87.7354 121.359 -26.4867 -4.82879 -139.41 -60.7437 -29.7881 -10.3265 3.81411 47.8783 -2.40848 21.0224 25.0921 -10.3304 0.0462048 0.000533403 0.662642 1.22247 8.02433 -2.55863 -4.00473 15.083 -3.65032 19.5184 -0.615412 -23.2127 -4.77083e-015 0 -3.18055e-015 -94.0614 -21.7721 -39.9458 -67.4277 71.5034 -68.308 7.21815 19.4659 -2.26649 19.0884 -1.46629 -9.31468 46.2031 -36.3719 30.4698 127.501 33.1639 20.9055 -15.7079 5.59961 83.7071 -2.00902 -35.9231 -1.20247 -46.9759 71.0478 33.6525 23.6191 48.3608 -16.6304 -1.35658e-009 1.56009e-007 -4.85075e-009 
19.1761 87.8786 122.87 -26.5402 -6.05836 -137.205 -61.8356 -28.4705 -9.76719 4.24085 46.5572 -4.3707 20.1953 24.457 -9.90157 0.0462048 0.000533403 0.662642 0.998702 7.71974 -2.67864 -4.35546 14.5126 -3.92868 20.2861 0.815649 -24.4283 1.59028e-015 -1.59028e-015 9.54166e-015 -94.028 -18.7904 -42.3481 -64.914 71.1818 -69.9233 7.21815 19.4659 -2.26649 22.2865 -2.43688 -12.3862 43.9144 -33.1715 23.8219 120.235 49.7215 26.4102 -28.5356 -2.75088 72.9798 -2.1995 -36.1836 -1.34114 -40.8231 69.4918 28.7038 24.9667 50.9614 -18.5536 -1.35658e-009 1.56009e-007 -4.85076e-009 
19.3542 87.9767 124.295 -26.2418 -7.19448 -135.329 -62.626 -27.477 -9.31937 4.5098 45.1953 -6.19511 19.4317 24.1404 -9.52272 0.0462048 0.000533403 0.662642 0.808466 7.49381 -2.89952 -4.64867 14.1039 -4.41172 20.7059 2.43212 -24.7789 1.59028e-015 1.59028e-015 3.18055e-015 -93.9912 -15.1378 -45.8508 -61.5706 70.2728 -71.3545 7.21815 19.4659 -2.26649 24.9833 -3.57766 -15.6195 44.3546 -33.0781 18.4889 66.7976 73.1048 75.2977 -50.6491 1.37457 34.2892 -2.11523 -36.15 -1.56958 -35.8595 67.2117 24.832 26.6076 52.9233 -20.5322 -1.35658e-009 1.56009e-007 -4.85076e-009 
19.4339 87.9685 125.682 -25.6567 -8.11376 -133.841 -63.1625 -26.8471 -9.02417 4.65571 43.8316 -7.71171 18.8942 24.2227 -9.24432 0.0462048 0.000533403 0.662642 0.671541 7.35711 -3.21438 -4.86851 13.8703 -5.07014 20.8373 4.15001 -24.2965 4.77083e-015 -1.59028e-015 -6.36111e-015 -93.5875 -11.091 -50.1809 -57.6173 68.6818 -72.3208 7.21815 19.4659 -2.26649 27.0033 -4.68087 -18.5015 45.6817 -35.7797 13.5835 -18.3146 49.9111 154.245 -14.6896 24.0765 -40.5381 -1.81028 -35.8331 -1.90462 -32.1869 64.5507 21.7613 28.0724 54.165 -22.2537 -1.35658e-009 1.56009e-007 -4.85076e-009 
19.418 87.8095 127.078 -24.8764 -8.73857 -132.75 -63.5055 -26.572 -8.86619 4.74112 42.5128 -8.81384 18.6981 24.7395 -9.10014 0.0462048 0.000533403 0.662642 0.60307 7.31748 -3.61432 -4.99059 13.8232 -5.87836 20.7528 5.80781 -23.1107 -1.76556e-031 -3.18055e-015 -3.18055e-015 -92.5315 -7.02367 -55.1109 -53.3144 66.4287 -72.6344 7.21815 19.4659 -2.26649 28.3302 -5.53747 -20.6114 46.5155 -39.4342 8.65169 -22.294 45.133 156.872 9.54206 13.5297 -69.3629 -1.3595 -35.2977 -2.35758 -29.5956 61.8943 19.0797 28.9705 54.6002 -23.4073 -1.35658e-009 1.56009e-007 -4.85076e-009 
19.313 87.4988 128.475 -23.9573 -9.02687 -132.068 -63.6418 -26.6616 -8.77982 4.82353 41.3363 -9.45765 18.8778 25.6389 -9.09438 0.0462048 0.000533403 0.662642 0.599995 7.37623 -4.08548 -4.99556 13.9659 -6.81163 20.5195 7.22012 -21.4124 -4.77083e-015 -4.77083e-015 -0 -90.6569 -3.34359 -60.4232 -48.8674 63.6647 -72.3192 7.21815 19.4659 -2.26649 29.0468 -6.00913 -21.7012 46.3918 -42.5303 3.76206 -19.3757 50.0426 154.053 17.0986 5.23234 -83.667 -0.757078 -34.6259 -2.89974 -27.8454 59.5971 16.5766 29.0928 54.0694 -23.7408 -1.35658e-009 1.56009e-007 -4.85075e-009 
19.1379 87.0609 129.831 -22.9595 -8.99106 -131.778 -63.556 -27.1133 -8.67535 4.93597 40.4375 -9.65681 19.3977 26.8118 -9.21042 0.0462048 0.000533403 0.662642 0.638519 7.52451 -4.60477 -4.88435 14.2846 -7.83639 20.1981 8.23647 -19.4215 -4.77083e-015 0 -3.18055e-015 -87.9661 -0.430342 -65.8427 -44.4955 60.657 -71.5437 7.21815 19.4659 -2.26649 29.2848 -6.06995 -21.7492 45.5229 -44.5462 -0.648363 -13.6464 56.1165 148.67 19.3891 0.328263 -92.5416 0.0113608 -33.9025 -3.46671 -26.7647 57.9135 14.3115 28.5726 52.4209 -23.225 -1.35659e-009 1.56009e-007 -4.85075e-009 
18.9207 86.5386 131.093 -21.9379 -8.69089 -131.832 -63.2451 -27.9116 -8.46187 5.09463 39.9729 -9.48836 20.1426 28.1041 -9.39957 0.0462048 0.000533403 0.662642 0.687647 7.7431 -5.1371 -4.68571 14.744 -8.89996 19.8497 8.78007 -17.3632 1.59028e-015 -3.18055e-015 -3.18055e-015 -84.2768 1.63712 -71.0756 -40.0447 57.3871 -70.9957 7.21815 19.4659 -2.26649 29.2003 -5.80549 -20.9632 44.36 -45.4665 -4.06957 -5.77783 61.3087 141.245 19.0451 -1.313 -97.9884 0.951989 -33.1872 -3.96852 -26.2263 56.9242 12.4869 27.7756 49.6671 -22.0601 -1.35658e-009 1.56009e-007 -4.85076e-009 
18.6924 85.9829 132.202 -20.9349 -8.21304 -132.159 -62.7224 -29.0161 -8.05638 5.31578 40.0776 -9.0989 20.9293 29.3446 -9.58078 0.0462048 0.000533403 0.662642 0.726897 8.00605 -5.63749 -4.45144 15.292 -9.9263 19.5356 8.85654 -15.4517 6.36111e-015 0 3.18055e-015 -77.717 3.53697 -76.2315 -34.2339 52.1007 -72.5751 7.21815 19.4659 -2.26649 28.9606 -5.37222 -19.7185 43.3262 -45.3917 -6.14762 3.54747 65.0719 132.562 17.7204 -1.18389 -101.679 2.05372 -32.5064 -4.31704 -26.0953 56.5136 11.2685 27.0271 46.1236 -20.546 -1.35658e-009 1.56009e-007 -4.85076e-009 
18.4837 85.4478 133.11 -19.9775 -7.64408 -132.675 -62.0008 -30.3446 -7.38096 5.62288 40.8055 -8.69205 21.5449 30.3853 -9.66147 0.0462048 0.000533403 0.662642 0.753195 8.2864 -6.05811 -4.24174 15.8714 -10.8218 19.3096 8.53702 -13.8715 0 6.36111e-015 -0 -72.7722 3.72174 -79.8779 -31.2201 48.529 -72.627 7.21815 19.4659 -2.26649 28.7229 -4.93804 -18.447 42.6905 -44.4835 -6.80829 13.1869 67.5124 123.925 16.2035 -0.441005 -104.656 3.2902 -31.8689 -4.45404 -26.1955 56.4336 10.658 26.3997 42.3795 -18.9359 -1.35658e-009 1.56009e-007 -4.85076e-009 
